<svg width="28" height="25" viewBox="0 0 28 25" fill="none" xmlns="http://www.w3.org/2000/svg">
<path d="M16.3779 19.159C18.9388 19.159 21.5082 19.159 24.0692 19.159C24.4749 19.159 24.8383 19.2255 25.0158 19.6326C25.1933 20.0231 25.0919 20.3637 24.7707 20.6379C24.5594 20.8123 24.7115 20.9951 24.7538 21.1696C25.1595 22.69 24.2889 24.1937 22.7591 24.6008C20.6799 25.1574 18.7867 23.3048 19.3192 21.1945C19.4121 20.8123 19.3107 20.7791 18.9895 20.7874C17.6964 20.7957 16.3948 20.804 15.1016 20.7874C14.7551 20.7791 14.6452 20.8123 14.7382 21.2111C15.1608 23.0472 13.8676 24.6922 12.0335 24.6922C10.1994 24.6922 8.85557 23.0223 9.27817 21.2693C9.38805 20.7957 9.38805 20.7791 8.88938 20.7957C8.02727 20.829 7.24124 20.7043 6.59043 20.0729C5.2043 18.7187 5.77904 16.4755 7.68074 15.9355C8.10334 15.8192 8.16251 15.6863 8.05263 15.2958C6.92006 11.2248 5.81285 7.1539 4.70564 3.07465C4.59576 2.65094 4.38446 2.49308 3.9365 2.50139C3.0913 2.53462 2.2461 2.51801 1.4009 2.5097C0.843067 2.51801 0.52189 2.22723 0.504986 1.73705C0.488082 1.23857 0.834615 0.897937 1.384 0.889629C2.39824 0.881321 3.41248 0.873013 4.42672 0.889629C5.33108 0.906245 6.04105 1.53766 6.28616 2.48477C6.52282 3.39866 6.79328 4.29593 7.02149 5.20982C7.11446 5.58368 7.29195 5.7083 7.68919 5.7083C13.2422 5.7083 18.7867 5.71661 24.3397 5.73322C24.8468 5.73322 25.3539 5.76646 25.861 5.77476C27.0866 5.79138 27.8303 6.66373 27.5683 7.84347C27.1457 9.73771 26.6893 11.6153 26.2414 13.5013C26.0723 14.2157 25.8779 14.9219 25.7427 15.6447C25.5229 16.8079 24.6693 17.4891 23.4691 17.4808C18.5923 17.4476 13.7239 17.4642 8.84712 17.4642C8.66118 17.4642 8.47523 17.4559 8.29774 17.4808C7.80752 17.5473 7.54551 17.863 7.55396 18.3282C7.56241 18.7686 7.83288 19.0676 8.30619 19.1341C8.45833 19.159 8.61892 19.1507 8.77105 19.1507C11.3067 19.159 13.8423 19.159 16.3779 19.159ZM9.37114 7.39483C8.94854 7.38653 8.52594 7.40314 8.10334 7.38653C7.76526 7.36991 7.63848 7.47791 7.73991 7.81854C7.98501 8.68258 8.21322 9.55493 8.44988 10.419C8.50904 10.635 8.61892 10.7845 8.88938 10.7845C9.65006 10.7762 10.4107 10.7762 11.1714 10.7845C11.425 10.7845 11.5349 10.6682 11.5011 10.4273C11.3743 9.5217 11.2475 8.62443 11.1207 7.71885C11.0869 7.47791 10.9601 7.38653 10.7235 7.39483C10.2671 7.40314 9.8191 7.39483 9.37114 7.39483ZM17.8739 9.08968C17.8739 9.5217 17.8823 9.94541 17.8739 10.3774C17.8654 10.6765 17.9753 10.8011 18.288 10.7928C18.9895 10.7762 19.691 10.7845 20.401 10.7928C20.6799 10.8011 20.8067 10.7014 20.8405 10.4273C20.9504 9.55493 21.0856 8.67427 21.2124 7.80193C21.2462 7.54438 21.1786 7.41145 20.8828 7.41145C20.0122 7.41976 19.1417 7.41976 18.2711 7.40314C17.9753 7.39483 17.8739 7.51945 17.8823 7.80193C17.8823 8.23395 17.8739 8.65766 17.8739 9.08968ZM16.1581 9.09798C16.1581 8.65766 16.1581 8.20902 16.1581 7.7687C16.1581 7.53607 16.082 7.40314 15.82 7.40314C14.9157 7.40314 14.0197 7.40314 13.1154 7.40314C12.8703 7.40314 12.7858 7.51945 12.8196 7.74377C12.9548 8.65766 13.09 9.57985 13.2084 10.4937C13.2422 10.7264 13.3605 10.7928 13.5802 10.7928C14.3156 10.7928 15.0424 10.7845 15.7778 10.7928C16.082 10.8011 16.1666 10.6516 16.1581 10.3857C16.1581 9.95371 16.1581 9.5217 16.1581 9.09798ZM23.841 10.7845C24.1791 10.7845 24.5171 10.7845 24.8552 10.7845C25.0496 10.7845 25.1679 10.7264 25.2102 10.5187C25.4215 9.58816 25.6413 8.66597 25.8695 7.73546C25.9286 7.50284 25.861 7.41145 25.599 7.41145C24.8383 7.41976 24.0776 7.41976 23.3254 7.41145C23.0888 7.41145 22.962 7.47791 22.9282 7.72716C22.8098 8.63273 22.6746 9.53 22.5478 10.4356C22.514 10.6848 22.6154 10.7928 22.8775 10.7928C23.1902 10.7845 23.5114 10.7845 23.841 10.7845ZM10.4023 12.4794C10.0642 12.4794 9.72613 12.4877 9.38805 12.4711C9.11758 12.4544 9.03306 12.5541 9.10068 12.8117C9.34579 13.6923 9.5909 14.5647 9.83601 15.4453C9.91207 15.7112 10.0727 15.8441 10.3516 15.8358C10.8418 15.8358 11.332 15.8275 11.8307 15.8358C12.118 15.8441 12.2026 15.7195 12.1688 15.4536C12.0504 14.5647 11.9321 13.6757 11.8138 12.7868C11.7884 12.5791 11.6785 12.4627 11.4503 12.4711C11.1038 12.4794 10.7573 12.4794 10.4023 12.4794ZM19.2515 12.4794C18.9304 12.4794 18.6092 12.496 18.2796 12.4794C17.9584 12.4627 17.8654 12.5957 17.8654 12.8948C17.8739 13.7505 17.8739 14.6062 17.8654 15.462C17.8654 15.7444 17.9668 15.8607 18.2542 15.8524C18.7444 15.8358 19.2346 15.8358 19.7249 15.8524C19.9869 15.8607 20.1052 15.7694 20.139 15.5118C20.2573 14.6228 20.3926 13.7339 20.5193 12.8532C20.5616 12.5791 20.4348 12.4794 20.1644 12.4877C19.8685 12.4877 19.5558 12.4794 19.2515 12.4794ZM16.1581 14.1659C16.1581 13.7256 16.1581 13.2852 16.1581 12.8366C16.1581 12.604 16.082 12.4711 15.82 12.4711C15.1439 12.4794 14.4677 12.4794 13.8 12.4711C13.5633 12.4711 13.4619 12.5708 13.4957 12.8034C13.631 13.7173 13.7662 14.6311 13.893 15.545C13.9268 15.7777 14.0367 15.8441 14.2564 15.8358C14.7635 15.8275 15.2706 15.8275 15.7693 15.8358C16.0651 15.8441 16.1666 15.7112 16.1581 15.437C16.1497 15.0216 16.1581 14.5896 16.1581 14.1659ZM22.869 15.8441C23.0972 15.8441 23.317 15.8358 23.5452 15.8441C23.8325 15.8607 23.9931 15.7195 24.0607 15.4536C24.272 14.5647 24.4664 13.6757 24.6862 12.7868C24.7453 12.5375 24.6608 12.4627 24.4157 12.4711C23.8241 12.4794 23.2324 12.4794 22.6408 12.4711C22.3788 12.4627 22.252 12.5791 22.2182 12.82C22.1337 13.5013 22.0154 14.1825 21.9477 14.8721C21.8548 15.8441 21.8717 15.8441 22.869 15.8441ZM13.1238 21.9422C13.1323 21.3108 12.6505 20.8123 12.0335 20.804C11.4165 20.7957 10.8756 21.3191 10.8756 21.9339C10.8756 22.5321 11.3996 23.0472 11.9997 23.0555C12.5998 23.0638 13.1154 22.5487 13.1238 21.9422ZM20.9166 21.8924C20.9081 22.5321 21.4237 23.0555 22.0407 23.0472C22.6493 23.0472 23.1564 22.5321 23.1564 21.9256C23.1564 21.3191 22.6577 20.804 22.0492 20.7957C21.4491 20.7957 20.925 21.2942 20.9166 21.8924Z" fill="white"/>
</svg>
