<svg width="21" height="13" viewBox="0 0 21 13" fill="none" xmlns="http://www.w3.org/2000/svg">
<path d="M6.41732 11.8197L6.41742 11.8197C7.71769 12.429 9.01306 12.7413 10.2703 12.7413C11.5275 12.7413 12.8228 12.429 14.1231 11.8197L14.1232 11.8197C15.1412 11.3414 16.1657 10.6799 17.1683 9.85246L17.1684 9.85241C18.7969 8.50645 19.8246 7.17183 19.9388 7.0235C19.9432 7.01781 19.9462 7.01386 19.9479 7.01173L19.9491 7.01017C20.15 6.74384 20.1503 6.37916 19.9499 6.11256C19.8963 6.0383 18.8508 4.65968 17.1684 3.26919L17.1683 3.26914C16.1657 2.44171 15.1412 1.78023 14.1232 1.30191L14.1231 1.30186C12.8228 0.692617 11.5275 0.380347 10.2703 0.380347C9.01306 0.380347 7.71769 0.692617 6.41742 1.30186L6.41732 1.30191C5.39935 1.78023 4.37488 2.44171 3.37219 3.26914L3.37213 3.26919C1.74364 4.61515 0.715939 5.94977 0.601721 6.0981C0.597338 6.10379 0.5943 6.10774 0.592625 6.10987L0.59261 6.10986L0.591425 6.11143C0.390228 6.37813 0.390228 6.74347 0.591425 7.01017L0.59141 7.01018L0.592625 7.01173C0.5943 7.01386 0.597337 7.01781 0.601719 7.0235C0.715927 7.17181 1.74363 8.50644 3.37213 9.85241L3.37219 9.85246C4.37488 10.6799 5.39935 11.3414 6.41732 11.8197ZM10.2703 11.2441C8.36669 11.2441 6.5804 10.3625 5.13754 9.32279C3.74606 8.32012 2.68354 7.17734 2.15642 6.56079C2.68346 5.94419 3.74405 4.80143 5.13453 3.79879C6.57632 2.75915 8.36262 1.87751 10.2703 1.87751C12.1738 1.87751 13.9601 2.75913 15.403 3.79881C16.7945 4.80147 17.857 5.94426 18.3841 6.56081C17.8571 7.17741 16.7965 8.32017 15.406 9.3228C13.9642 10.3624 12.1779 11.2441 10.2703 11.2441Z" fill="#FFF0C9" stroke="white" stroke-width="0.2"/>
<path d="M7.25156 6.56095C7.25156 8.22547 8.60566 9.57957 10.2702 9.57957C11.9347 9.57957 13.2888 8.22547 13.2888 6.56095C13.2888 4.89643 11.9347 3.54233 10.2702 3.54233C8.60566 3.54233 7.25156 4.89643 7.25156 6.56095ZM8.74873 6.56095C8.74873 5.72033 9.42955 5.0395 10.2702 5.0395C11.1108 5.0395 11.7916 5.72033 11.7916 6.56095C11.7916 7.40158 11.1108 8.08241 10.2702 8.08241C9.42955 8.08241 8.74873 7.40158 8.74873 6.56095Z" fill="#FFF0C9" stroke="white" stroke-width="0.2"/>
</svg>
