<svg width="23" height="23" viewBox="0 0 23 23" fill="none" xmlns="http://www.w3.org/2000/svg">
<path d="M12.6822 0.00141491C13.5214 -0.00180524 14.3605 0.00662871 15.1994 0.0267141L15.4225 0.0347638C15.6801 0.0439635 15.9342 0.0554631 16.2413 0.0692626C17.4648 0.126761 18.2997 0.319954 19.0322 0.603995C19.7911 0.896085 20.4305 1.29167 21.0699 1.93105C21.6545 2.50558 22.1069 3.20054 22.3958 3.96763C22.6798 4.70016 22.873 5.53618 22.9305 6.75973C22.9443 7.06562 22.9558 7.32092 22.965 7.57851L22.9719 7.8016C22.9923 8.64014 23.0011 9.47893 22.9983 10.3177L22.9995 11.1756V12.682C23.0023 13.5212 22.9935 14.3604 22.973 15.1993L22.9661 15.4224C22.9569 15.68 22.9454 15.9341 22.9316 16.2412C22.8741 17.4647 22.6786 18.2996 22.3958 19.0321C22.1079 19.8 21.6553 20.4956 21.0699 21.0698C20.4949 21.6544 19.7996 22.1068 19.0322 22.3958C18.2997 22.6798 17.4648 22.873 16.2413 22.9305C15.9342 22.9443 15.6801 22.9558 15.4225 22.965L15.1994 22.9719C14.3605 22.9923 13.5214 23.0011 12.6822 22.9983L11.8244 22.9995H10.3191C9.47993 23.0023 8.64077 22.9935 7.80186 22.973L7.57877 22.9661C7.30579 22.9562 7.03287 22.9447 6.76002 22.9316C5.53648 22.8741 4.70162 22.6786 3.96796 22.3958C3.20059 22.1075 2.50551 21.655 1.93141 21.0698C1.34615 20.4952 0.893275 19.7998 0.604383 19.0321C0.320347 18.2996 0.127157 17.4647 0.0696599 16.2412C0.0568529 15.9683 0.0453534 15.6954 0.0351617 15.4224L0.0294122 15.1993C0.00821136 14.3604 -0.00137251 13.5212 0.000663517 12.682V10.3177C-0.00254593 9.47893 0.00588787 8.64015 0.0259623 7.8016L0.0340119 7.57851C0.0432114 7.32092 0.0547108 7.06562 0.06851 6.75973C0.126007 5.53503 0.319197 4.7013 0.603232 3.96763C0.892296 3.20017 1.34605 2.50539 1.93256 1.9322C2.50626 1.34658 3.2009 0.893293 3.96796 0.603995C4.70162 0.319954 5.53533 0.126761 6.76002 0.0692626L7.57877 0.0347638L7.80186 0.0290142C8.64038 0.00782362 9.47915 -0.00176042 10.3179 0.000265029L12.6822 0.00141491ZM11.5001 5.75122C10.7382 5.74044 9.98187 5.88119 9.27491 6.16528C8.56795 6.44937 7.9245 6.87114 7.38196 7.40608C6.83941 7.94101 6.4086 8.57844 6.11454 9.28133C5.82048 9.98421 5.66906 10.7385 5.66906 11.5004C5.66906 12.2624 5.82048 13.0167 6.11454 13.7196C6.4086 14.4225 6.83941 15.0599 7.38196 15.5948C7.9245 16.1298 8.56795 16.5515 9.27491 16.8356C9.98187 17.1197 10.7382 17.2605 11.5001 17.2497C13.025 17.2497 14.4874 16.6439 15.5657 15.5656C16.644 14.4873 17.2498 13.0248 17.2498 11.4999C17.2498 9.97493 16.644 8.51245 15.5657 7.43415C14.4874 6.35585 13.025 5.75122 11.5001 5.75122ZM11.5001 8.05114C11.9583 8.0427 12.4137 8.12566 12.8395 8.29517C13.2654 8.46469 13.6531 8.71736 13.9802 9.03843C14.3073 9.35951 14.5672 9.74254 14.7446 10.1652C14.922 10.5878 15.0134 11.0415 15.0135 11.4999C15.0135 11.9582 14.9223 12.412 14.745 12.8347C14.5678 13.2573 14.308 13.6405 13.9811 13.9616C13.6541 14.2828 13.2664 14.5356 12.8406 14.7053C12.4148 14.8749 11.9595 14.958 11.5012 14.9498C10.5863 14.9498 9.7088 14.5863 9.06183 13.9393C8.41486 13.2923 8.0514 12.4148 8.0514 11.4999C8.0514 10.5849 8.41486 9.70742 9.06183 9.06044C9.7088 8.41346 10.5863 8.04999 11.5012 8.04999L11.5001 8.05114ZM17.5373 4.02628C17.1663 4.04113 16.8154 4.19895 16.5582 4.46668C16.301 4.73441 16.1573 5.0913 16.1573 5.46258C16.1573 5.83386 16.301 6.19074 16.5582 6.45848C16.8154 6.72621 17.1663 6.88403 17.5373 6.89888C17.9185 6.89888 18.2841 6.74744 18.5537 6.47786C18.8232 6.20829 18.9747 5.84266 18.9747 5.46143C18.9747 5.08019 18.8232 4.71457 18.5537 4.445C18.2841 4.17542 17.9185 4.02398 17.5373 4.02398V4.02628Z" fill="black"/>
</svg>
