<svg width="42" height="28" viewBox="0 0 42 28" fill="none" xmlns="http://www.w3.org/2000/svg">
<path d="M13.5853 14.1372C13.5853 14.9 12.8778 15.4804 11.9814 15.4804C11.3108 15.4804 10.8147 15.1553 10.8147 14.5434C10.8147 13.7806 11.5076 13.1687 12.3975 13.1687C13.076 13.1687 13.5853 13.5253 13.5853 14.1372ZM5.87063 11.1066H5.52808C5.41914 11.1066 5.3089 11.1696 5.29446 11.2754L4.98078 12.9448L5.57926 12.9257C6.38118 12.9257 7.00066 12.8323 7.14634 12.0381C7.31433 11.2 6.69485 11.1066 5.87063 11.1066ZM26.5786 11.1066H26.2505C26.1192 11.1066 26.0313 11.1696 26.0169 11.2754L25.7111 12.9448L26.2938 12.9257C27.2414 12.9257 27.8976 12.7378 27.8976 11.8007C27.8898 11.1381 27.1994 11.1066 26.5786 11.1066ZM42 3.00024V24.9998C41.9997 25.7954 41.6308 26.5583 40.9744 27.1209C40.318 27.6835 39.4279 27.9997 38.4997 28H3.50033C2.57209 27.9997 1.68197 27.6835 1.02561 27.1209C0.369243 26.5583 0.00034785 25.7954 0 24.9998V3.00024C0.00034785 2.20462 0.369243 1.44167 1.02561 0.87908C1.68197 0.31649 2.57209 0.000298153 3.50033 0H38.4997C39.4279 0.000298153 40.318 0.31649 40.9744 0.87908C41.6308 1.44167 41.9997 2.20462 42 3.00024ZM9.35652 11.4621C9.35652 10.1493 8.17531 9.71169 6.8261 9.71169H3.90982C3.81561 9.71231 3.72494 9.74255 3.65502 9.79667C3.58511 9.8508 3.5408 9.92504 3.53051 10.0053L2.33486 16.386C2.31255 16.5109 2.4228 16.6358 2.56848 16.6358H3.95444C4.15131 16.6358 4.33374 16.4546 4.35605 16.2791L4.68417 14.6165C4.75766 14.1665 5.6462 14.3229 5.99662 14.3229C8.08212 14.3229 9.35783 13.2609 9.35783 11.461L9.35652 11.4621ZM15.4962 12.0122H14.1102C13.8333 12.0122 13.8189 12.3564 13.8044 12.5252C13.3818 11.9942 12.7689 11.8997 12.0759 11.8997C10.2897 11.8997 8.92603 13.2429 8.92603 14.7245C8.92603 15.9428 9.81588 16.737 11.2373 16.737C11.8935 16.737 12.7099 16.431 13.1692 15.9934C13.1268 16.1198 13.1021 16.2501 13.0957 16.3815C13.0957 16.5255 13.1692 16.6313 13.3293 16.6313H14.584C14.7809 16.6313 14.9489 16.4501 14.9857 16.2746L15.7298 12.2563C15.7521 12.1371 15.6419 12.0122 15.4962 12.0122ZM18.4492 18.1308L23.094 12.3429C23.1308 12.3115 23.1308 12.28 23.1308 12.2372C23.1308 12.1315 23.0218 12.019 22.8972 12.019H21.4968C21.4316 12.0212 21.368 12.0365 21.311 12.0636C21.254 12.0908 21.2052 12.1291 21.1687 12.1753L19.2367 14.6131L18.4348 12.2698C18.4047 12.1986 18.3503 12.1367 18.2787 12.0921C18.2071 12.0476 18.1216 12.0225 18.0332 12.0201H16.6695C16.5449 12.0201 16.4359 12.1326 16.4359 12.2383C16.4359 12.3137 17.8573 15.7887 17.982 16.1194C17.7851 16.3568 16.4871 17.9069 16.4871 18.0948C16.4871 18.2073 16.596 18.2951 16.7207 18.2951H18.1211C18.1866 18.2914 18.2503 18.2748 18.3071 18.2468C18.364 18.2187 18.4126 18.1798 18.4492 18.1331V18.1308ZM30.0645 11.4621C30.0645 10.1493 28.8833 9.71169 27.5341 9.71169H24.6388C24.5418 9.71102 24.4478 9.74035 24.3741 9.79428C24.3003 9.84821 24.2517 9.92313 24.2372 10.0053L23.056 16.3804C23.0415 16.5053 23.1505 16.6301 23.2896 16.6301H24.7845C24.9302 16.6301 25.0391 16.5368 25.0758 16.4299L25.404 14.6176C25.4775 14.1676 26.3673 14.324 26.7164 14.324C28.7875 14.324 30.0645 13.262 30.0645 11.4621ZM36.2029 12.0122H34.8169C34.54 12.0122 34.5255 12.3564 34.5032 12.5252C34.1016 11.9942 33.4821 11.8997 32.7747 11.8997C30.9885 11.8997 29.6248 13.2429 29.6248 14.7245C29.6248 15.9428 30.5147 16.737 31.9361 16.737C32.6146 16.737 33.431 16.431 33.868 15.9934C33.8457 16.0868 33.7945 16.287 33.7945 16.3815C33.7945 16.5255 33.868 16.6313 34.0281 16.6313H35.2894C35.4863 16.6313 35.6543 16.4501 35.691 16.2746L36.4352 12.2563C36.4575 12.1371 36.3486 12.0122 36.2029 12.0122ZM39.6664 9.93106C39.6664 9.80619 39.5575 9.71282 39.4328 9.71282H38.0836C37.9747 9.71282 37.8644 9.78819 37.85 9.88156L36.6688 16.3815L36.6478 16.413C36.6478 16.5255 36.7567 16.6313 36.9024 16.6313H38.1059C38.2884 16.6313 38.4708 16.4501 38.4852 16.2746L39.6664 9.95018V9.93106ZM33.1042 13.1687C32.2143 13.1687 31.5213 13.775 31.5213 14.5434C31.5213 15.1497 32.0319 15.4804 32.7025 15.4804C33.5779 15.4804 34.2854 14.9056 34.2854 14.1372C34.2932 13.5253 33.7827 13.1687 33.1042 13.1687Z" fill="black"/>
</svg>
