<svg width="37" height="37" viewBox="0 0 37 37" fill="none" xmlns="http://www.w3.org/2000/svg">
<g id="quote">
<g id="Quote 2">
<g id="&#60;Group&#62;">
<path id="Vector" d="M30.6066 6.43069L23.0397 6.43069C22.237 6.43069 21.4671 6.74958 20.8995 7.3172C20.3319 7.88483 20.013 8.65468 20.013 9.45742L20.013 17.0242C20.013 17.827 20.3319 18.5968 20.8995 19.1645C21.4671 19.7321 22.237 20.051 23.0397 20.051L30.4704 20.051C30.113 22.1652 29.0189 24.0848 27.3819 25.4698C25.7449 26.8547 23.6706 27.6156 21.5264 27.6178L20.7697 27.6178C20.569 27.6178 20.3766 27.6975 20.2346 27.8394C20.0927 27.9813 20.013 28.1738 20.013 28.3745L20.013 29.8879C20.013 30.0885 20.0927 30.281 20.2346 30.4229C20.3766 30.5648 20.569 30.6445 20.7697 30.6445L21.5264 30.6445C24.7373 30.6445 27.8168 29.369 30.0873 27.0985C32.3578 24.828 33.6333 21.7486 33.6333 18.5376L33.6333 9.45742C33.6333 8.65468 33.3144 7.88482 32.7468 7.3172C32.1792 6.74958 31.4093 6.43069 30.6066 6.43069ZM13.9596 6.43069L6.39273 6.4307C5.59 6.4307 4.82014 6.74958 4.25252 7.3172C3.68489 7.88483 3.366 8.65469 3.36601 9.45743L3.36601 17.0243C3.36601 17.827 3.68489 18.5968 4.25252 19.1645C4.82014 19.7321 5.59 20.051 6.39274 20.051L13.8234 20.051C13.466 22.1652 12.3719 24.0848 10.7349 25.4698C9.09793 26.8547 7.02362 27.6156 4.87937 27.6178L4.12269 27.6178C3.92201 27.6178 3.72954 27.6975 3.58764 27.8394C3.44573 27.9813 3.36601 28.1738 3.36601 28.3745L3.36601 29.8879C3.36601 30.0885 3.44573 30.281 3.58764 30.4229C3.72954 30.5648 3.92201 30.6445 4.12269 30.6445L4.87937 30.6445C8.09033 30.6445 11.1698 29.369 13.4403 27.0985C15.7107 24.828 16.9863 21.7486 16.9863 18.5376L16.9863 9.45742C16.9863 8.65469 16.6674 7.88483 16.0998 7.3172C15.5322 6.74958 14.7623 6.43069 13.9596 6.43069Z" fill="#025159"/>
</g>
</g>
</g>
</svg>
