<svg width="21" height="21" viewBox="0 0 21 21" fill="none" xmlns="http://www.w3.org/2000/svg">
<path d="M16.0466 0.000257062C16.1838 0.00708619 16.315 0.086987 16.4324 0.204448C17.8884 1.66178 19.3471 3.11639 20.7997 4.57646C21.0995 4.8783 21.0742 5.15147 20.7368 5.48951C18.9517 7.27738 17.1645 9.06319 15.3773 10.8497C12.1096 14.1167 8.84253 17.3845 5.5748 20.6515C5.11042 21.1159 4.90622 21.1159 4.44321 20.6529C3.07533 19.285 1.70678 17.9172 0.338903 16.5486C-0.111137 16.0986 -0.112503 15.8862 0.332073 15.4416C3.59093 12.1821 6.84979 8.9232 10.1093 5.66365C11.8958 3.87715 13.6823 2.09134 15.4682 0.304153C15.6232 0.151181 15.7721 -0.00725498 16.0466 0.000257062ZM5.49626 15.2845C5.49285 15.5352 5.39587 15.6895 5.19988 15.779C4.99022 15.8746 4.81881 15.7885 4.67335 15.6478C4.21648 15.2039 3.7603 14.7587 3.31572 14.3018C3.15114 14.1325 3.03573 14.129 2.86978 14.3005C2.38696 14.7997 1.90072 15.2955 1.39537 15.7708C1.19869 15.9558 1.23079 16.0542 1.4063 16.227C2.53242 17.3381 3.65308 18.4539 4.76008 19.5841C4.97178 19.7999 5.0749 19.759 5.26544 19.5678C7.31896 17.5013 9.38135 15.4436 11.441 13.384C14.1529 10.6721 16.8647 7.96029 19.5752 5.24776C19.6954 5.12688 19.8798 5.04084 19.6565 4.82094C18.4887 3.67091 17.3325 2.50928 16.1791 1.3456C16.0398 1.2056 15.9558 1.21106 15.8219 1.34833C15.3295 1.85368 14.8344 2.35699 14.3243 2.84391C14.1303 3.02898 14.1638 3.14507 14.3386 3.31307C14.7661 3.72213 15.1827 4.14281 15.5938 4.56826C15.8813 4.86465 15.9025 5.12005 15.6833 5.3461C15.4552 5.5817 15.1629 5.56395 14.8774 5.28191C14.4479 4.8585 14.0211 4.43236 13.6024 3.99803C13.4549 3.84506 13.3477 3.81774 13.1852 3.98642C12.703 4.48563 12.212 4.97664 11.7121 5.45878C11.5428 5.622 11.5708 5.7299 11.7265 5.87399C11.9682 6.09799 12.2025 6.33223 12.4265 6.57398C12.6552 6.82119 12.6566 7.10187 12.4504 7.30333C12.2482 7.50001 11.9655 7.48908 11.721 7.25894C11.497 7.0486 11.2758 6.83417 11.0695 6.60676C10.8961 6.41554 10.7649 6.393 10.5717 6.59651C10.11 7.08343 9.63403 7.55805 9.1478 8.02039C8.96273 8.19658 9.00029 8.30175 9.1635 8.45882C9.60603 8.88495 10.0369 9.3227 10.4665 9.7625C10.7021 10.0036 10.724 10.287 10.5396 10.4946C10.3449 10.7138 10.0404 10.7145 9.78564 10.47C9.33423 10.0363 8.89034 9.59518 8.45396 9.14651C8.30713 8.99559 8.20743 8.95529 8.04079 9.12875C7.56002 9.62933 7.06764 10.119 6.5698 10.6025C6.4059 10.7616 6.42024 10.8777 6.57663 11.0245C6.80882 11.2424 7.03281 11.4691 7.25271 11.7006C7.49788 11.9587 7.51222 12.2497 7.3012 12.4545C7.08677 12.6628 6.81292 12.6444 6.5459 12.3903C6.30756 12.1623 6.07332 11.9294 5.84728 11.689C5.71479 11.5476 5.61509 11.5545 5.48192 11.691C4.98817 12.195 4.49101 12.6956 3.98497 13.1873C3.82517 13.3423 3.82381 13.4495 3.98634 13.6046C4.41453 14.0129 4.82837 14.4364 5.24768 14.8536C5.38017 14.9834 5.50172 15.1186 5.49626 15.2845Z" fill="#FFF0C9"/>
</svg>
