<svg width="21" height="22" viewBox="0 0 21 22" fill="none" xmlns="http://www.w3.org/2000/svg">
<g id="Group">
<path id="Vector" d="M16.0466 0.808851C16.1838 0.81568 16.315 0.895581 16.4324 1.01304C17.8884 2.47038 19.3471 3.92498 20.7997 5.38505C21.0995 5.6869 21.0742 5.96006 20.7368 6.2981C18.9517 8.08597 17.1645 9.87179 15.3773 11.6583C12.1096 14.9253 8.84253 18.1931 5.5748 21.4601C5.11042 21.9245 4.90622 21.9245 4.44321 21.4615C3.07533 20.0936 1.70678 18.7258 0.338903 17.3572C-0.111137 16.9072 -0.112503 16.6948 0.332073 16.2502C3.59093 12.9907 6.84979 9.73179 10.1093 6.47225C11.8958 4.68575 13.6823 2.89993 15.4682 1.11275C15.6232 0.959775 15.7721 0.801339 16.0466 0.808851ZM5.49626 16.0931C5.49285 16.3438 5.39587 16.4981 5.19988 16.5876C4.99022 16.6832 4.81881 16.5971 4.67335 16.4564C4.21648 16.0125 3.7603 15.5673 3.31572 15.1104C3.15114 14.9411 3.03573 14.9376 2.86978 15.109C2.38696 15.6083 1.90072 16.1041 1.39537 16.5794C1.19869 16.7644 1.23079 16.8628 1.4063 17.0355C2.53242 18.1466 3.65308 19.2625 4.76008 20.3927C4.97178 20.6085 5.0749 20.5676 5.26544 20.3764C7.31896 18.3099 9.38135 16.2522 11.441 14.1926C14.1529 11.4807 16.8647 8.76888 19.5752 6.05635C19.6954 5.93548 19.8798 5.84943 19.6565 5.62953C18.4887 4.47951 17.3325 3.31787 16.1791 2.15419C16.0398 2.01419 15.9558 2.01966 15.8219 2.15692C15.3295 2.66228 14.8344 3.16558 14.3243 3.6525C14.1303 3.83757 14.1638 3.95366 14.3386 4.12166C14.7661 4.53073 15.1827 4.9514 15.5938 5.37685C15.8813 5.67324 15.9025 5.92865 15.6833 6.15469C15.4552 6.3903 15.1629 6.37254 14.8774 6.0905C14.4479 5.66709 14.0211 5.24096 13.6024 4.80662C13.4549 4.65365 13.3477 4.62633 13.1852 4.79501C12.703 5.29422 12.212 5.78524 11.7121 6.26737C11.5428 6.43059 11.5708 6.53849 11.7265 6.68258C11.9682 6.90658 12.2025 7.14082 12.4265 7.38257C12.6552 7.62979 12.6566 7.91046 12.4504 8.11192C12.2482 8.3086 11.9655 8.29767 11.721 8.06753C11.497 7.85719 11.2758 7.64276 11.0695 7.41535C10.8961 7.22413 10.7649 7.2016 10.5717 7.40511C10.11 7.89202 9.63403 8.36665 9.1478 8.82898C8.96273 9.00517 9.00029 9.11034 9.1635 9.26741C9.60603 9.69355 10.0369 10.1313 10.4665 10.5711C10.7021 10.8122 10.724 11.0956 10.5396 11.3032C10.3449 11.5224 10.0404 11.5231 9.78564 11.2786C9.33423 10.8449 8.89034 10.4038 8.45396 9.9551C8.30713 9.80418 8.20743 9.76389 8.04079 9.93735C7.56002 10.4379 7.06764 10.9276 6.5698 11.4111C6.4059 11.5702 6.42024 11.6863 6.57663 11.8331C6.80882 12.051 7.03281 12.2777 7.25271 12.5092C7.49788 12.7673 7.51222 13.0583 7.3012 13.2631C7.08677 13.4714 6.81292 13.453 6.5459 13.1989C6.30756 12.9708 6.07332 12.738 5.84728 12.4976C5.71479 12.3562 5.61509 12.3631 5.48192 12.4996C4.98817 13.0036 4.49101 13.5042 3.98497 13.9959C3.82517 14.1509 3.82381 14.2581 3.98634 14.4132C4.41453 14.8215 4.82837 15.2449 5.24768 15.6622C5.38017 15.792 5.50172 15.9272 5.49626 16.0931Z" fill="black"/>
</g>
</svg>
