<svg width="99" height="16" viewBox="0 0 99 16" fill="none" xmlns="http://www.w3.org/2000/svg">
<path d="M15.9637 5.54731L11.0182 4.82857L8.80748 0.346714C8.7471 0.224003 8.64776 0.124666 8.52505 0.0642842C8.2173 -0.0876433 7.84332 0.038963 7.68945 0.346714L5.47871 4.82857L0.533274 5.54731C0.396929 5.56679 0.27227 5.63106 0.176829 5.72845C0.0614451 5.84705 -0.00213655 6.0066 5.48223e-05 6.17205C0.00224619 6.33749 0.0700313 6.4953 0.188515 6.6108L3.7666 10.0993L2.92126 15.0252C2.90144 15.1398 2.91412 15.2577 2.95786 15.3654C3.00161 15.4732 3.07467 15.5665 3.16876 15.6349C3.26286 15.7032 3.37421 15.7438 3.49021 15.7521C3.60621 15.7603 3.7222 15.7359 3.82504 15.6817L8.24846 13.356L12.6719 15.6817C12.7927 15.7459 12.9329 15.7674 13.0673 15.744C13.4062 15.6855 13.6341 15.3642 13.5757 15.0252L12.7303 10.0993L16.3084 6.6108C16.4058 6.51536 16.4701 6.3907 16.4896 6.25435C16.5421 5.91349 16.3045 5.59795 15.9637 5.54731Z" fill="#025159"/>
<path d="M36.5843 5.54731L31.6388 4.82857L29.4281 0.346714C29.3677 0.224003 29.2684 0.124666 29.1457 0.0642842C28.8379 -0.0876433 28.4639 0.038963 28.3101 0.346714L26.0993 4.82857L21.1539 5.54731C21.0175 5.56679 20.8929 5.63106 20.7974 5.72845C20.6821 5.84705 20.6185 6.0066 20.6207 6.17205C20.6229 6.33749 20.6906 6.4953 20.8091 6.6108L24.3872 10.0993L23.5419 15.0252C23.522 15.1398 23.5347 15.2577 23.5785 15.3654C23.6222 15.4732 23.6953 15.5665 23.7894 15.6349C23.8835 15.7032 23.9948 15.7438 24.1108 15.7521C24.2268 15.7603 24.3428 15.7359 24.4456 15.6817L28.8691 13.356L33.2925 15.6817C33.4133 15.7459 33.5535 15.7674 33.6879 15.744C34.0268 15.6855 34.2547 15.3642 34.1963 15.0252L33.3509 10.0993L36.929 6.6108C37.0264 6.51536 37.0907 6.3907 37.1102 6.25435C37.1628 5.91349 36.9251 5.59795 36.5843 5.54731Z" fill="#025159"/>
<path d="M77.826 5.54731L72.8805 4.82857L70.6698 0.346714C70.6094 0.224003 70.5101 0.124666 70.3874 0.0642842C70.0796 -0.0876433 69.7056 0.038963 69.5518 0.346714L67.341 4.82857L62.3956 5.54731C62.2592 5.56679 62.1346 5.63106 62.0391 5.72845C61.9237 5.84705 61.8602 6.0066 61.8624 6.17205C61.8646 6.33749 61.9323 6.4953 62.0508 6.6108L65.6289 10.0993L64.7836 15.0252C64.7637 15.1398 64.7764 15.2577 64.8202 15.3654C64.8639 15.4732 64.937 15.5665 65.0311 15.6349C65.1252 15.7032 65.2365 15.7438 65.3525 15.7521C65.4685 15.7603 65.5845 15.7359 65.6873 15.6817L70.1108 13.356L74.5342 15.6817C74.655 15.7459 74.7952 15.7674 74.9296 15.744C75.2685 15.6855 75.4964 15.3642 75.438 15.0252L74.5926 10.0993L78.1707 6.6108C78.2681 6.51536 78.3324 6.3907 78.3519 6.25435C78.4044 5.91349 78.1668 5.59795 77.826 5.54731Z" fill="#025159"/>
<path d="M57.2049 5.54731L52.2594 4.82857L50.0487 0.346714C49.9883 0.224003 49.889 0.124666 49.7663 0.0642842C49.4585 -0.0876433 49.0845 0.038963 48.9307 0.346714L46.7199 4.82857L41.7745 5.54731C41.6381 5.56679 41.5135 5.63106 41.418 5.72845C41.3027 5.84705 41.2391 6.0066 41.2413 6.17205C41.2435 6.33749 41.3112 6.4953 41.4297 6.6108L45.0078 10.0993L44.1625 15.0252C44.1426 15.1398 44.1553 15.2577 44.1991 15.3654C44.2428 15.4732 44.3159 15.5665 44.41 15.6349C44.5041 15.7032 44.6154 15.7438 44.7314 15.7521C44.8474 15.7603 44.9634 15.7359 45.0662 15.6817L49.4897 13.356L53.9131 15.6817C54.0339 15.7459 54.1741 15.7674 54.3085 15.744C54.6474 15.6855 54.8753 15.3642 54.8169 15.0252L53.9715 10.0993L57.5496 6.6108C57.647 6.51536 57.7113 6.3907 57.7308 6.25435C57.7834 5.91349 57.5457 5.59795 57.2049 5.54731Z" fill="#025159"/>
<path d="M98.4475 5.54731L93.5021 4.82857L91.2914 0.346714C91.231 0.224003 91.1316 0.124666 91.0089 0.0642842C90.7012 -0.0876433 90.3272 0.038963 90.1733 0.346714L87.9626 4.82857L83.0172 5.54731C82.8808 5.56679 82.7562 5.63106 82.6607 5.72845C82.5453 5.84705 82.4818 6.0066 82.4839 6.17205C82.4861 6.33749 82.5539 6.4953 82.6724 6.6108L86.2505 10.0993L85.4051 15.0252C85.3853 15.1398 85.398 15.2577 85.4418 15.3654C85.4855 15.4732 85.5586 15.5665 85.6527 15.6349C85.7467 15.7032 85.8581 15.7438 85.9741 15.7521C86.0901 15.7603 86.2061 15.7359 86.3089 15.6817L90.7323 13.356L95.1558 15.6817C95.2765 15.7459 95.4168 15.7674 95.5512 15.744C95.8901 15.6855 96.118 15.3642 96.0596 15.0252L95.2142 10.0993L98.7923 6.6108C98.8897 6.51536 98.954 6.3907 98.9734 6.25435C99.026 5.91349 98.7884 5.59795 98.4475 5.54731Z" fill="#025159"/>
</svg>
