<svg width="40" height="31" viewBox="0 0 40 31" fill="none" xmlns="http://www.w3.org/2000/svg">
<path id="Vector" d="M39.5628 17.2742L37.0142 16.2824L38.7755 11.6191C38.954 11.1472 38.4752 10.6833 37.9151 10.7953L32.8586 11.7791L31.6087 9.43548C31.3814 9.00355 30.7078 8.93157 30.3669 9.29951L26.2519 13.7068L28.4676 4.57227C28.5975 4.03636 27.9482 3.61242 27.3963 3.87638L23.89 5.51612L20.5136 0.324955C20.2295 -0.106976 19.5234 -0.106976 19.2312 0.316956L15.8223 5.50812L12.6975 3.7644C12.1456 3.48444 11.48 3.90038 11.6018 4.44429L13.5578 13.7068L9.51585 9.21152C9.18308 8.88357 8.57435 8.93956 8.32274 9.3155L6.75628 11.6591L1.95137 10.7393C1.40757 10.6353 0.93682 11.0672 1.0748 11.5311L2.50329 16.1624L0.360556 17.2822C-0.0858461 17.5142 -0.126428 18.0581 0.287508 18.338L9.2886 23.8172C9.67818 24.0491 9.86486 24.5051 9.75935 24.937L9.01264 28.0165C8.88278 28.4804 9.36976 28.8963 9.90544 28.7844L18.9065 26.9287V31H21.1061V27.0006L29.8069 28.8004C30.3182 28.9043 30.7889 28.5284 30.7078 28.0805L30.2533 24.913C30.1964 24.5051 30.3831 24.1051 30.7402 23.8892L39.7089 18.37C40.1553 18.0741 40.0741 17.4742 39.5628 17.2742Z" fill="white"/>
</svg>
