<svg width="42" height="29" viewBox="0 0 42 29" fill="none" xmlns="http://www.w3.org/2000/svg">
<path d="M22.0362 12.1301C22.0362 13.244 21.271 13.8848 19.9218 13.8848H18.15V10.3766H19.9297C21.271 10.3766 22.0362 11.0104 22.0362 12.1301ZM25.4998 16.1824C25.4998 16.7196 26.0247 17.0691 26.849 17.0691C27.8989 17.0691 28.6864 16.4807 28.6864 15.6511V15.1525L26.9723 15.2492C26.0024 15.3074 25.4998 15.6255 25.4998 16.1824ZM42 3.10739V25.8926C41.9997 26.7166 41.6308 27.5068 40.9744 28.0895C40.318 28.6722 39.4279 28.9997 38.4997 29H3.50033C2.57209 28.9997 1.68197 28.6722 1.02561 28.0895C0.369243 27.5068 0.00034785 26.7166 0 25.8926V3.10739C0.00034785 2.28336 0.369243 1.49316 1.02561 0.910475C1.68197 0.327793 2.57209 0.000308802 3.50033 0H38.4997C39.4279 0.000308802 40.318 0.327793 40.9744 0.910475C41.6308 1.49316 41.9997 2.28336 42 3.10739ZM9.31977 10.7576C9.93269 10.8031 10.5443 10.4861 10.9315 10.0842C11.3108 9.66938 11.5588 9.11362 11.4932 8.5497C10.9538 8.56951 10.2831 8.86661 9.89594 9.2814C9.54551 9.63793 9.24759 10.2135 9.31977 10.7576ZM13.7388 15.5801C13.7244 15.5673 12.3096 15.0884 12.2951 13.6378C12.2807 12.4272 13.4107 11.8447 13.4619 11.8121C12.8201 10.9708 11.8279 10.88 11.4853 10.8601C10.5955 10.8147 9.83688 11.3064 9.41427 11.3064C8.98378 11.3064 8.34199 10.8788 7.64245 10.8928C7.18573 10.9035 6.74016 11.0203 6.35009 11.2315C5.96002 11.4426 5.63905 11.7408 5.41914 12.0963C4.46367 13.5597 5.17109 15.7211 6.09768 16.9118C6.54917 17.5002 7.09647 18.148 7.81176 18.1224C8.48899 18.0967 8.75935 17.7344 9.5757 17.7344C10.3999 17.7344 10.6335 18.1224 11.3475 18.1166C12.0917 18.1037 12.551 17.5282 13.0104 16.9386C13.5131 16.2652 13.7244 15.6185 13.7401 15.5789L13.7388 15.5801ZM23.6111 12.1243C23.6111 10.4023 22.2619 9.22431 20.3366 9.22431H16.6039V18.0536H18.15V15.0371H20.2867C22.2409 15.0371 23.6111 13.8464 23.6111 12.1243ZM30.1734 13.6576C30.1734 12.383 29.0211 11.5604 27.2571 11.5604C25.6166 11.5604 24.4065 12.3958 24.3619 13.5341H25.7544C25.8712 12.99 26.4395 12.6346 27.2125 12.6346C28.1601 12.6346 28.6851 13.0226 28.6851 13.7485V14.2344L26.7597 14.338C24.9656 14.4348 23.997 15.0896 23.997 16.2221C23.997 17.3674 24.9958 18.1247 26.4316 18.1247C27.4015 18.1247 28.2979 17.6913 28.7061 16.998H28.735V18.0595H30.1642V13.6576H30.1734ZM37.6256 11.6443H36.0585L34.2434 16.8617H34.2145L32.3994 11.6443H30.7732L33.3903 18.0723L33.2525 18.4603C33.0188 19.1209 32.633 19.3795 31.9479 19.3795C31.7967 19.3771 31.6457 19.3705 31.4951 19.3597V20.4212C31.583 20.4468 31.9689 20.4538 32.0857 20.4538C33.595 20.4538 34.3024 19.9423 34.9219 18.395L37.6256 11.6443Z" fill="black"/>
</svg>
