<svg width="42" height="27" viewBox="0 0 42 27" fill="none" xmlns="http://www.w3.org/2000/svg">
<path d="M39.2 27H2.8C2.05739 27 1.3452 26.7155 0.820101 26.2092C0.294999 25.7028 0 25.0161 0 24.3V2.7C0 1.98392 0.294999 1.29716 0.820101 0.790812C1.3452 0.284463 2.05739 0 2.8 0H39.2C39.9426 0 40.6548 0.284463 41.1799 0.790812C41.705 1.29716 42 1.98392 42 2.7V24.3C42 25.0161 41.705 25.7028 41.1799 26.2092C40.6548 26.7155 39.9426 27 39.2 27ZM20.8133 16.6073L20.3945 19.1385C21.4649 19.5729 22.6208 19.7768 23.7813 19.7359H23.7685C25.1285 19.8124 26.4753 19.4424 27.5893 18.6863L27.5695 18.6986C28.0243 18.3763 28.3942 17.9553 28.6491 17.4696C28.9041 16.984 29.037 16.4473 29.0372 15.903V15.8861C29.0372 14.6486 28.1785 13.6215 26.4857 12.8273C26.0237 12.6123 25.5819 12.3594 25.165 12.0712L25.1918 12.0893C25.0754 12.0165 24.9784 11.9183 24.9089 11.8025C24.8394 11.6868 24.7992 11.5568 24.7917 11.4233V11.421C24.8004 11.2817 24.8455 11.1467 24.9228 11.0287C25.0001 10.9107 25.1071 10.8135 25.2338 10.746L25.2385 10.7438C25.6301 10.5259 26.0801 10.4253 26.5312 10.4546H26.5242H26.6175L26.7073 10.4535C27.4587 10.4535 28.1715 10.6099 28.8143 10.89L28.7817 10.8776L29.0547 11.0182L29.4735 8.57588C28.6265 8.25915 27.7255 8.09813 26.817 8.10113H26.7598H26.7633C25.4488 8.04563 24.1527 8.41461 23.0802 9.14963L23.0988 9.13725C22.6531 9.44065 22.2893 9.84279 22.0382 10.3099C21.7871 10.777 21.6559 11.2954 21.6557 11.8215V11.8271C21.644 13.0174 22.533 14.0456 24.2993 14.8871C24.766 15.084 25.1685 15.3247 25.529 15.6139L25.5208 15.6071C25.6249 15.6915 25.7095 15.796 25.7692 15.9138C25.8288 16.0316 25.8623 16.1601 25.8673 16.2911V16.2956C25.8673 16.6545 25.6457 16.9628 25.326 17.1011L25.3202 17.1034C24.9702 17.2811 24.5548 17.3846 24.1138 17.3846H24.0602H24.0625H23.975C22.9752 17.3846 22.0278 17.1709 21.1785 16.7884L21.2193 16.8053L20.8192 16.6117L20.8133 16.6073ZM32.6258 17.8909H36.4933C36.5556 18.1481 36.6773 18.7106 36.8585 19.5784H39.6667L37.2237 8.2935H34.8903C34.5568 8.26499 34.2225 8.341 33.9373 8.51023C33.6521 8.67946 33.4311 8.93289 33.3072 9.23287L33.3037 9.243L28.8237 19.5784H31.997L32.634 17.892L32.6258 17.8909ZM17.3728 8.2935L15.4758 19.5784H18.5022L20.398 8.2935H17.3728ZM5.74233 10.5964L8.204 19.5604H11.3937L16.1478 8.2935H12.9442L9.98783 15.993L9.6775 14.4281L8.62283 9.243C8.5663 8.94393 8.39149 8.67774 8.13529 8.50059C7.8791 8.32344 7.56155 8.24919 7.24967 8.2935L7.25667 8.29237H2.37183L2.33567 8.52075C6.097 9.44213 8.568 11.43 9.681 14.427C9.33898 13.5706 8.8116 12.7944 8.134 12.15L8.13283 12.1489C7.46715 11.4898 6.67088 10.9664 5.79133 10.6099L5.74467 10.593L5.74233 10.5964ZM36.0022 15.57H33.4822C33.6525 15.1365 34.0538 14.0865 34.6862 12.42L34.7398 12.2614L34.9265 11.8046C35.0035 11.6179 35.0548 11.4649 35.0898 11.3479L35.3092 12.3142L36.001 15.5655L36.0022 15.57Z" fill="black"/>
</svg>
